<svg width="114.000000" height="35.000000" viewBox="0 0 114 35" fill="none" xmlns="http://www.w3.org/2000/svg" xmlns:xlink="http://www.w3.org/1999/xlink">
	<desc>
			Created with Pixso.
	</desc>
	<defs>
		<clipPath id="clip129_11">
			<rect id="LOGO 1" width="114.000000" height="35.000000" fill="white"/>
		</clipPath>
	</defs>
	<g clip-path="url(#clip129_11)">
		<path id="Vector" d="M24.5894 34.9563L10.1738 34.9563C8.54358 35.0173 6.95532 34.4282 5.75409 33.3169C4.55292 32.2056 3.83582 30.6619 3.75861 29.0212L3.75861 21.2407C3.75861 20.9099 3.8891 20.593 4.12134 20.3591C4.35364 20.1252 4.66864 19.9939 4.99707 19.9939C5.32556 19.9939 5.64056 20.1252 5.8728 20.3591C6.10504 20.593 6.23553 20.9099 6.23553 21.2407L6.23553 29.0212C6.31165 30.0005 6.7674 30.9106 7.50427 31.5544C8.24115 32.1982 9.20001 32.5247 10.1738 32.4626L24.5894 32.4626C25.5632 32.5247 26.522 32.1982 27.2589 31.5544C27.9958 30.9106 28.4515 30.0005 28.5276 29.0212L28.5276 21.2407C28.5276 20.9099 28.6581 20.593 28.8904 20.3591C29.1226 20.1252 29.4377 19.9939 29.7661 19.9939C30.0946 19.9939 30.4095 20.1252 30.6418 20.3591C30.874 20.593 31.0046 20.9099 31.0046 21.2407L31.0046 29.0212C30.9274 30.6619 30.2103 32.2056 29.009 33.3169C27.8079 34.4282 26.2196 35.0173 24.5894 34.9563ZM34.3607 18.3855C34.4768 18.2695 34.569 18.1316 34.6318 17.9795C34.6947 17.8276 34.7271 17.6648 34.7271 17.5002C34.7271 17.3354 34.6947 17.1726 34.6318 17.0205C34.569 16.8687 34.4768 16.7307 34.3607 16.6147L18.2609 0.405518C18.1458 0.288574 18.0087 0.195801 17.8579 0.132568C17.707 0.0690918 17.5451 0.0366211 17.3816 0.0366211C17.2181 0.0366211 17.0562 0.0690918 16.9053 0.132568C16.7544 0.195801 16.6174 0.288574 16.5023 0.405518L0.402405 16.6147C0.16925 16.8496 0.038208 17.168 0.038208 17.5002C0.038208 17.832 0.16925 18.1506 0.402405 18.3855C0.63562 18.6201 0.951904 18.752 1.28174 18.752C1.61151 18.752 1.9278 18.6201 2.16101 18.3855L17.3816 3.04883L32.6022 18.3855C32.7173 18.5022 32.8543 18.595 33.0051 18.6584C33.1561 18.7217 33.3179 18.7542 33.4814 18.7542C33.645 18.7542 33.8068 18.7217 33.9578 18.6584C34.1086 18.595 34.2457 18.5022 34.3607 18.3855Z" fill-rule="nonzero" fill="#46A869"/>
		<path id="Vector" d="M65.5451 16.6797L64.3719 16.6797L64.1274 13.4805L63.5734 8.24707L63.4593 8.24707L60.5587 15.4658L59.4832 15.4658L56.7293 8.24707L56.5989 8.24707L56.0449 13.3821L55.7679 16.6797L54.6598 16.6797L55.7516 6.16333L57.2345 6.16333L57.7722 7.77124L60.0373 13.7595L60.135 13.7595L62.5142 7.67285L63.0519 6.16333L64.5185 6.16333L65.5451 16.6797ZM71.8363 6.06494C73.2703 6.06494 74.3675 6.50781 75.128 7.3938C75.8993 8.27979 76.285 9.55396 76.285 11.2166C76.285 13.0103 75.8776 14.3938 75.0628 15.3672C74.248 16.3298 73.0856 16.811 71.5756 16.811C70.1633 16.811 69.0715 16.3516 68.3002 15.4329C67.5396 14.5142 67.1594 13.207 67.1594 11.5117C67.1594 9.76172 67.5613 8.4165 68.3654 7.47583C69.1801 6.53516 70.3371 6.06494 71.8363 6.06494ZM71.7548 7.13135C69.5821 7.13135 68.4958 8.54224 68.4958 11.3643C68.4958 12.8625 68.7565 13.9727 69.2779 14.6946C69.8102 15.4165 70.6087 15.7773 71.6733 15.7773C73.8461 15.7773 74.9324 14.3391 74.9324 11.4626C74.9324 9.99707 74.6663 8.90869 74.134 8.19775C73.6125 7.48682 72.8195 7.13135 71.7548 7.13135ZM82.1798 6.09766C83.6682 6.09766 84.8088 6.52441 85.6019 7.37744C86.3949 8.23047 86.7914 9.45557 86.7914 11.0525C86.7914 12.9009 86.3623 14.3174 85.5041 15.3018C84.6459 16.2861 83.4128 16.7783 81.805 16.7783C81.3596 16.7783 80.8164 16.7673 80.1755 16.7454C79.5454 16.7344 78.9588 16.7126 78.4156 16.6797L78.3993 16.6797L78.4808 13.5134L78.3993 6.16333L78.4156 6.16333L82.1798 6.09766ZM82.0169 15.679C83.1249 15.679 83.9723 15.3181 84.559 14.5962C85.1565 13.8633 85.4552 12.7751 85.4552 11.3313C85.4552 8.5752 84.3308 7.19702 82.0821 7.19702C81.3976 7.19702 80.61 7.21875 79.7192 7.2627L79.6541 13.3984L79.7029 15.5806C80.0397 15.6133 80.4417 15.6406 80.9088 15.6626C81.3868 15.6736 81.7561 15.679 82.0169 15.679ZM96.3976 11.5117L96.3813 12.6931C96.403 13.9836 96.0662 14.99 95.371 15.7119C94.6757 16.4336 93.6871 16.7947 92.4052 16.7947C91.1776 16.7947 90.2325 16.4502 89.5698 15.761C88.918 15.072 88.6029 14.0986 88.6247 12.8408L88.641 11.4133L88.6247 6.16333L89.912 6.16333L89.8631 12.6768C89.8522 13.6611 90.0695 14.4048 90.5149 14.908C90.9603 15.4001 91.623 15.6462 92.503 15.6462C93.3829 15.6462 94.051 15.4111 94.5073 14.9407C94.9636 14.4705 95.1863 13.7705 95.1754 12.8408L95.1102 6.16333L96.4139 6.16333L96.3976 11.5117ZM104.349 15.6953L104.235 16.6797L99.0856 16.6797L99.1671 13.5134L99.0856 6.16333L100.422 6.16333L100.34 13.3984L100.389 15.5806L104.251 15.5806L104.349 15.6953ZM111.878 15.6626L111.78 16.6797L105.914 16.6797L105.996 13.5134L105.914 6.16333L111.797 6.16333L111.862 6.29468L111.764 7.31177L109.304 7.2627L107.234 7.29541L107.201 10.7407L109.157 10.7734L110.884 10.7244L110.982 10.8391L110.868 11.8564L109.043 11.8235L107.185 11.8398L107.169 13.3984L107.218 15.5806L109.287 15.5969L111.797 15.5312L111.878 15.6626Z" fill-rule="nonzero" fill="#46A869"/>
		<path id="Vector" d="M47.967 27.6064C48.684 27.7812 49.2108 28.0767 49.5476 28.4922C49.8952 28.897 50.0691 29.4329 50.0691 30.1001C50.0691 32.1455 48.4775 33.168 45.2945 33.168C44.3602 33.168 43.4042 33.1406 42.4265 33.0859L42.5406 29.936L42.4265 22.5205L46.1581 22.5039C47.2336 22.5039 48.0701 22.7336 48.6677 23.1931C49.2652 23.6416 49.5639 24.2922 49.5639 25.1455C49.5639 25.7141 49.4227 26.2119 49.1402 26.6384C48.8687 27.0649 48.4775 27.3877 47.967 27.6064ZM47.2988 25.4407C47.2988 24.9595 47.1576 24.6204 46.8752 24.4236C46.5927 24.2158 46.0984 24.1118 45.3923 24.1118L44.5938 24.1118L44.5449 26.9829L46.0767 27.0322C46.4895 26.9229 46.7937 26.7422 46.9892 26.4907C47.1956 26.2393 47.2988 25.8892 47.2988 25.4407ZM45.6693 31.5767C46.3537 31.5767 46.8806 31.4399 47.2499 31.1665C47.6302 30.8931 47.8203 30.4993 47.8203 29.9854C47.8203 29.2087 47.3206 28.7275 46.3211 28.5415L44.5123 28.5742L44.496 29.7393L44.5449 31.511C44.9252 31.5547 45.2999 31.5767 45.6693 31.5767ZM59.9294 27.8853L59.9131 29.2798C59.924 30.5376 59.5601 31.511 58.8213 32.2002C58.0826 32.8892 57.0234 33.2336 55.6437 33.2336C54.3184 33.2336 53.308 32.9001 52.6128 32.2329C51.9175 31.5657 51.5862 30.6086 51.6187 29.3618L51.635 27.8359L51.5862 22.5205L53.8023 22.5205L53.6883 29.0664C53.6774 29.865 53.8458 30.4556 54.1934 30.8384C54.5411 31.2212 55.068 31.4126 55.7741 31.4126C57.1864 31.4126 57.8871 30.6689 57.8762 29.1814L57.7621 22.5205L60.0109 22.5205L59.9294 27.8853ZM64.3731 29.7393L64.4709 33.0859L62.2547 33.0859L62.3688 29.936L62.2547 22.5205L64.5035 22.5205L64.3731 29.7393ZM72.8127 31.429L72.666 33.0859L66.9954 33.0859L67.1094 29.936L66.9954 22.5205L69.244 22.5205L69.1136 29.7393L69.1625 31.2485L72.6823 31.2485L72.8127 31.429ZM78.3307 22.4548C79.8516 22.4548 81.0194 22.8813 81.8342 23.7344C82.649 24.5876 83.0563 25.8125 83.0563 27.4094C83.0563 29.2798 82.6001 30.7126 81.6875 31.708C80.775 32.7031 79.4713 33.2009 77.7766 33.2009C77.2661 33.2009 76.6523 33.1899 75.9352 33.168C75.2291 33.1462 74.6208 33.1189 74.1102 33.0859L74.2242 29.936L74.1102 22.5205L78.3307 22.4548ZM78.1677 31.4783C79.895 31.4783 80.7587 30.2915 80.7587 27.918C80.7587 26.6274 80.5468 25.6924 80.1232 25.1125C79.7104 24.522 79.0585 24.2266 78.1677 24.2266C77.5919 24.2266 76.9781 24.2539 76.3264 24.3086L76.2286 29.7393L76.2775 31.3633C77.0379 31.4399 77.668 31.4783 78.1677 31.4783ZM86.8274 29.7393L86.9251 33.0859L84.709 33.0859L84.823 29.936L84.709 22.5205L86.9577 22.5205L86.8274 29.7393ZM98.1839 29.8213L98.2654 33.0859L95.8863 33.0859L91.6006 25.9329L91.4702 25.9329L91.4539 29.4438L91.5191 33.0859L89.5148 33.0859L89.6288 29.9688L89.5311 22.5205L91.8939 22.5205L96.1796 29.6736L96.3262 29.6736L96.2773 22.6189L98.3143 22.4875L98.1839 29.8213ZM105.362 22.3892C106.503 22.3892 107.529 22.6025 108.442 23.0291L107.969 25.0305L107.757 25.0635C107.225 24.7571 106.747 24.5383 106.323 24.4072C105.911 24.2649 105.465 24.1938 104.987 24.1938C104.02 24.1938 103.314 24.4836 102.869 25.0635C102.423 25.6431 102.201 26.5947 102.201 27.918C102.201 28.793 102.293 29.4875 102.478 30.0017C102.673 30.5156 102.972 30.8931 103.374 31.1338C103.776 31.3633 104.308 31.4783 104.971 31.4783C105.199 31.4783 105.411 31.4619 105.606 31.429C105.813 31.3962 106.063 31.3359 106.356 31.2485L106.389 30.3462L106.356 28.6729L108.393 28.5251L108.344 30.0017L108.393 32.5774C107.089 33.0149 105.889 33.2336 104.792 33.2336C103.162 33.2336 101.935 32.7852 101.109 31.8884C100.294 30.9915 99.8868 29.7063 99.8868 28.033C99.8868 26.2063 100.359 24.8118 101.305 23.8494C102.26 22.876 103.613 22.3892 105.362 22.3892Z" fill-rule="nonzero" fill="#FBFBFB"/>
	</g>
</svg>
