<svg width="1679" height="512" viewBox="0 0 1679 512" fill="none" xmlns="http://www.w3.org/2000/svg">
<path d="M362.155 511.363H149.841C125.831 512.254 102.439 503.636 84.7478 487.379C67.0563 471.122 56.4948 448.54 55.3581 424.54V310.723C55.3581 305.885 57.2798 301.246 60.7005 297.825C64.1211 294.404 68.7606 292.483 73.5981 292.483C78.4357 292.483 83.0751 294.404 86.4957 297.825C89.9164 301.246 91.8381 305.885 91.8381 310.723V424.54C92.9592 438.867 99.671 452.178 110.524 461.597C121.377 471.017 135.499 475.789 149.841 474.883H362.155C376.497 475.789 390.619 471.017 401.472 461.597C412.325 452.178 419.037 438.867 420.158 424.54V310.723C420.158 305.885 422.08 301.246 425.5 297.825C428.921 294.404 433.561 292.483 438.398 292.483C443.236 292.483 447.875 294.404 451.296 297.825C454.716 301.246 456.638 305.885 456.638 310.723V424.54C455.501 448.54 444.94 471.122 427.248 487.379C409.557 503.636 386.165 512.254 362.155 511.363ZM506.068 268.953C507.778 267.257 509.135 265.24 510.061 263.017C510.987 260.795 511.464 258.411 511.464 256.003C511.464 253.595 510.987 251.211 510.061 248.988C509.135 246.765 507.778 244.748 506.068 243.052L268.948 5.93223C267.253 4.22262 265.235 2.86567 263.013 1.93965C260.79 1.01363 258.406 0.536865 255.998 0.536865C253.59 0.536865 251.206 1.01363 248.983 1.93965C246.761 2.86567 244.743 4.22262 243.048 5.93223L5.92771 243.052C2.49305 246.487 0.563477 251.145 0.563477 256.003C0.563477 260.86 2.49305 265.518 5.92771 268.953C9.36237 272.388 14.0208 274.317 18.8781 274.317C23.7354 274.317 28.3938 272.388 31.8285 268.953L255.998 44.601L480.168 268.953C481.863 270.663 483.881 272.02 486.103 272.946C488.326 273.872 490.71 274.348 493.118 274.348C495.526 274.348 497.91 273.872 500.133 272.946C502.355 272.02 504.373 270.663 506.068 268.953Z" fill="#46A869"/>
<path d="M965.353 244H948.073L944.473 197.2L936.313 120.64H934.633L891.913 226.24H876.073L835.513 120.64H833.593L825.433 195.76L821.353 244H805.033L821.113 90.16H842.953L850.873 113.68L884.233 201.28H885.673L920.713 112.24L928.633 90.16H950.233L965.353 244ZM1058.01 88.72C1079.13 88.72 1095.29 95.2 1106.49 108.16C1117.85 121.12 1123.53 139.76 1123.53 164.08C1123.53 190.32 1117.53 210.56 1105.53 224.8C1093.53 238.88 1076.41 245.92 1054.17 245.92C1033.37 245.92 1017.29 239.2 1005.93 225.76C994.728 212.32 989.128 193.2 989.128 168.4C989.128 142.8 995.048 123.12 1006.89 109.36C1018.89 95.6 1035.93 88.72 1058.01 88.72ZM1056.81 104.32C1024.81 104.32 1008.81 124.96 1008.81 166.24C1008.81 188.16 1012.65 204.4 1020.33 214.96C1028.17 225.52 1039.93 230.8 1055.61 230.8C1087.61 230.8 1103.61 209.76 1103.61 167.68C1103.61 146.24 1099.69 130.32 1091.85 119.92C1084.17 109.52 1072.49 104.32 1056.81 104.32ZM1210.35 89.2C1232.27 89.2 1249.07 95.44 1260.75 107.92C1272.43 120.4 1278.27 138.32 1278.27 161.68C1278.27 188.72 1271.95 209.44 1259.31 223.84C1246.67 238.24 1228.51 245.44 1204.83 245.44C1198.27 245.44 1190.27 245.28 1180.83 244.96C1171.55 244.8 1162.91 244.48 1154.91 244H1154.67L1155.87 197.68L1154.67 90.16H1154.91L1210.35 89.2ZM1207.95 229.36C1224.27 229.36 1236.75 224.08 1245.39 213.52C1254.19 202.8 1258.59 186.88 1258.59 165.76C1258.59 125.44 1242.03 105.28 1208.91 105.28C1198.83 105.28 1187.23 105.6 1174.11 106.24L1173.15 196L1173.87 227.92C1178.83 228.4 1184.75 228.8 1191.63 229.12C1198.67 229.28 1204.11 229.36 1207.95 229.36ZM1419.75 168.4L1419.51 185.68C1419.83 204.56 1414.87 219.28 1404.63 229.84C1394.39 240.4 1379.83 245.68 1360.95 245.68C1342.87 245.68 1328.95 240.64 1319.19 230.56C1309.59 220.48 1304.95 206.24 1305.27 187.84L1305.51 166.96L1305.27 90.16H1324.23L1323.51 185.44C1323.35 199.84 1326.55 210.72 1333.11 218.08C1339.67 225.28 1349.43 228.88 1362.39 228.88C1375.35 228.88 1385.19 225.44 1391.91 218.56C1398.63 211.68 1401.91 201.44 1401.75 187.84L1400.79 90.16H1419.99L1419.75 168.4ZM1536.86 229.6L1535.18 244H1459.34L1460.54 197.68L1459.34 90.16H1479.02L1477.82 196L1478.54 227.92H1535.42L1536.86 229.6ZM1647.75 229.12L1646.31 244H1559.91L1561.11 197.68L1559.91 90.16H1646.55L1647.51 92.08L1646.07 106.96L1609.83 106.24L1579.35 106.72L1578.87 157.12L1607.67 157.6L1633.11 156.88L1634.55 158.56L1632.87 173.44L1605.99 172.96L1578.63 173.2L1578.39 196L1579.11 227.92L1609.59 228.16L1646.55 227.2L1647.75 229.12Z" fill="#46A869"/>
<path d="M706.461 403.84C717.021 406.4 724.781 410.72 729.741 416.8C734.861 422.72 737.421 430.56 737.421 440.32C737.421 470.24 713.981 485.2 667.101 485.2C653.341 485.2 639.261 484.8 624.861 484L626.541 437.92L624.861 329.44L679.821 329.2C695.661 329.2 707.981 332.56 716.781 339.28C725.581 345.84 729.981 355.36 729.981 367.84C729.981 376.16 727.901 383.44 723.741 389.68C719.741 395.92 713.981 400.64 706.461 403.84ZM696.621 372.16C696.621 365.12 694.541 360.16 690.381 357.28C686.221 354.24 678.941 352.72 668.541 352.72H656.781L656.061 394.72L678.621 395.44C684.701 393.84 689.181 391.2 692.061 387.52C695.101 383.84 696.621 378.72 696.621 372.16ZM672.621 461.92C682.701 461.92 690.461 459.92 695.901 455.92C701.501 451.92 704.301 446.16 704.301 438.64C704.301 427.28 696.941 420.24 682.221 417.52L655.581 418L655.341 435.04L656.061 460.96C661.661 461.6 667.181 461.92 672.621 461.92ZM882.645 407.92L882.405 428.32C882.565 446.72 877.205 460.96 866.325 471.04C855.445 481.12 839.845 486.16 819.525 486.16C800.005 486.16 785.125 481.28 774.885 471.52C764.645 461.76 759.765 447.76 760.245 429.52L760.485 407.2L759.765 329.44H792.405L790.725 425.2C790.565 436.88 793.045 445.52 798.165 451.12C803.285 456.72 811.045 459.52 821.445 459.52C842.245 459.52 852.565 448.64 852.405 426.88L850.725 329.44H883.845L882.645 407.92ZM948.092 435.04L949.532 484H916.892L918.572 437.92L916.892 329.44H950.012L948.092 435.04ZM1072.39 459.76L1070.23 484H986.713L988.393 437.92L986.713 329.44H1019.83L1017.91 435.04L1018.63 457.12H1070.47L1072.39 459.76ZM1153.66 328.48C1176.06 328.48 1193.26 334.72 1205.26 347.2C1217.26 359.68 1223.26 377.6 1223.26 400.96C1223.26 428.32 1216.54 449.28 1203.1 463.84C1189.66 478.4 1170.46 485.68 1145.5 485.68C1137.98 485.68 1128.94 485.52 1118.38 485.2C1107.98 484.88 1099.02 484.48 1091.5 484L1093.18 437.92L1091.5 329.44L1153.66 328.48ZM1151.26 460.48C1176.7 460.48 1189.42 443.12 1189.42 408.4C1189.42 389.52 1186.3 375.84 1180.06 367.36C1173.98 358.72 1164.38 354.4 1151.26 354.4C1142.78 354.4 1133.74 354.8 1124.14 355.6L1122.7 435.04L1123.42 458.8C1134.62 459.92 1143.9 460.48 1151.26 460.48ZM1278.8 435.04L1280.24 484H1247.6L1249.28 437.92L1247.6 329.44H1280.72L1278.8 435.04ZM1446.06 436.24L1447.26 484H1412.22L1349.1 379.36H1347.18L1346.94 430.72L1347.9 484H1318.38L1320.06 438.4L1318.62 329.44H1353.42L1416.54 434.08H1418.7L1417.98 330.88L1447.98 328.96L1446.06 436.24ZM1551.78 327.52C1568.58 327.52 1583.7 330.64 1597.14 336.88L1590.18 366.16L1587.06 366.64C1579.22 362.16 1572.18 358.96 1565.94 357.04C1559.86 354.96 1553.3 353.92 1546.26 353.92C1532.02 353.92 1521.62 358.16 1515.06 366.64C1508.5 375.12 1505.22 389.04 1505.22 408.4C1505.22 421.2 1506.58 431.36 1509.3 438.88C1512.18 446.4 1516.58 451.92 1522.5 455.44C1528.42 458.8 1536.26 460.48 1546.02 460.48C1549.38 460.48 1552.5 460.24 1555.38 459.76C1558.42 459.28 1562.1 458.4 1566.42 457.12L1566.9 443.92L1566.42 419.44L1596.42 417.28L1595.7 438.88L1596.42 476.56C1577.22 482.96 1559.54 486.16 1543.38 486.16C1519.38 486.16 1501.3 479.6 1489.14 466.48C1477.14 453.36 1471.14 434.56 1471.14 410.08C1471.14 383.36 1478.1 362.96 1492.02 348.88C1506.1 334.64 1526.02 327.52 1551.78 327.52Z" fill="black"/>
</svg>
